<svg width="1600" height="1200" viewBox="0 0 1600 1200" fill="none" xmlns="http://www.w3.org/2000/svg">
  <defs>
    <linearGradient id="bg" x1="0" y1="0" x2="1600" y2="1200" gradientUnits="userSpaceOnUse">
      <stop stop-color="#F8FAFF"/>
      <stop offset="1" stop-color="#EEF2FF"/>
    </linearGradient>
    <linearGradient id="flow" x1="300" y1="900" x2="1250" y2="300" gradientUnits="userSpaceOnUse">
      <stop stop-color="#7C3AED"/>
      <stop offset="0.55" stop-color="#4F46E5"/>
      <stop offset="1" stop-color="#22D3EE"/>
    </linearGradient>
    <filter id="soft" x="0" y="0" width="1600" height="1200" filterUnits="userSpaceOnUse" color-interpolation-filters="sRGB">
      <feGaussianBlur stdDeviation="24"/>
    </filter>
  </defs>
  <rect width="1600" height="1200" rx="48" fill="url(#bg)"/>

  <g opacity="0.35" filter="url(#soft)">
    <circle cx="420" cy="860" r="180" fill="#7C3AED"/>
    <circle cx="780" cy="660" r="210" fill="#4F46E5"/>
    <circle cx="1160" cy="420" r="180" fill="#22D3EE"/>
  </g>

  <path d="M260 900C430 770 560 760 720 640C870 530 980 390 1240 290" stroke="url(#flow)" stroke-width="88" stroke-linecap="round"/>
  <path d="M260 900C430 770 560 760 720 640C870 530 980 390 1240 290" stroke="#FFFFFF" stroke-opacity="0.5" stroke-width="24" stroke-linecap="round"/>

  <g fill="#C7D2FE" opacity="0.8">
    <rect x="260" y="740" width="86" height="160" rx="18"/>
    <rect x="370" y="660" width="86" height="240" rx="18"/>
    <rect x="480" y="560" width="86" height="340" rx="18"/>
    <rect x="590" y="470" width="86" height="430" rx="18"/>
  </g>

  <g stroke="#4F46E5" stroke-width="8" stroke-linecap="round" stroke-linejoin="round">
    <path d="M970 470L1130 320"/>
    <path d="M1130 320H1068"/>
    <path d="M1130 320V382"/>
  </g>

  <g fill="#22D3EE" opacity="0.85">
    <circle cx="320" cy="640" r="16"/>
    <circle cx="530" cy="490" r="13"/>
    <circle cx="730" cy="560" r="17"/>
    <circle cx="930" cy="450" r="15"/>
    <circle cx="1190" cy="320" r="18"/>
  </g>

  <g fill="#111827">
    <text x="230" y="250" font-family="Arial, Helvetica, sans-serif" font-size="44" font-weight="700">Digital Growth</text>
    <text x="230" y="300" font-family="Arial, Helvetica, sans-serif" font-size="26" fill="#4B5563">SEO, Paid Media, Analytics, and Conversion</text>
  </g>
</svg>
