<svg width="1600" height="1200" viewBox="0 0 1600 1200" fill="none" xmlns="http://www.w3.org/2000/svg">
  <defs>
    <linearGradient id="bg" x1="0" y1="0" x2="1600" y2="1200" gradientUnits="userSpaceOnUse">
      <stop stop-color="#F8FAFF"/>
      <stop offset="1" stop-color="#EEF2FF"/>
    </linearGradient>
    <linearGradient id="card" x1="0" y1="0" x2="1" y2="1">
      <stop stop-color="#7C3AED"/>
      <stop offset="1" stop-color="#22D3EE"/>
    </linearGradient>
  </defs>
  <rect width="1600" height="1200" rx="48" fill="url(#bg)"/>

  <g transform="translate(120 180)">
    <rect x="0" y="0" width="410" height="370" rx="34" fill="white" stroke="#E5E7EB"/>
    <rect x="42" y="48" width="120" height="120" rx="24" fill="url(#card)"/>
    <path d="M85 130L120 92L145 120" stroke="white" stroke-width="10" stroke-linecap="round" stroke-linejoin="round"/>
    <text x="42" y="220" font-family="Arial, Helvetica, sans-serif" font-size="42" font-weight="700" fill="#111827">SEO</text>
    <text x="42" y="265" font-family="Arial, Helvetica, sans-serif" font-size="26" fill="#4B5563">Search visibility</text>
  </g>

  <g transform="translate(595 130)">
    <rect x="0" y="0" width="410" height="430" rx="34" fill="white" stroke="#E5E7EB"/>
    <circle cx="205" cy="150" r="86" fill="url(#card)"/>
    <path d="M205 108V195M165 150H245" stroke="white" stroke-width="12" stroke-linecap="round"/>
    <text x="42" y="310" font-family="Arial, Helvetica, sans-serif" font-size="42" font-weight="700" fill="#111827">Web Dev</text>
    <text x="42" y="355" font-family="Arial, Helvetica, sans-serif" font-size="26" fill="#4B5563">Fast conversion pages</text>
  </g>

  <g transform="translate(1070 200)">
    <rect x="0" y="0" width="410" height="350" rx="34" fill="white" stroke="#E5E7EB"/>
    <rect x="130" y="62" width="150" height="230" rx="32" fill="url(#card)"/>
    <circle cx="205" cy="255" r="18" fill="white"/>
    <text x="42" y="300" font-family="Arial, Helvetica, sans-serif" font-size="42" font-weight="700" fill="#111827">Social</text>
    <text x="42" y="337" font-family="Arial, Helvetica, sans-serif" font-size="26" fill="#4B5563">Audience growth</text>
  </g>

  <g transform="translate(170 680)">
    <rect x="0" y="0" width="1260" height="340" rx="34" fill="white" stroke="#E5E7EB"/>
    <text x="50" y="90" font-family="Arial, Helvetica, sans-serif" font-size="46" font-weight="700" fill="#111827">Digital Marketing Services</text>
    <text x="50" y="140" font-family="Arial, Helvetica, sans-serif" font-size="26" fill="#4B5563">Integrated strategy across SEO, Social, Ads, and Analytics.</text>
    <g stroke="#A78BFA" stroke-width="8" stroke-linecap="round">
      <path d="M60 250H360"/>
      <path d="M420 250H720"/>
      <path d="M780 250H1080"/>
    </g>
    <g fill="#6366F1">
      <circle cx="360" cy="250" r="14"/>
      <circle cx="720" cy="250" r="14"/>
      <circle cx="1080" cy="250" r="14"/>
    </g>
  </g>
</svg>
