<svg width="1600" height="1200" viewBox="0 0 1600 1200" fill="none" xmlns="http://www.w3.org/2000/svg">
  <defs>
    <linearGradient id="bg" x1="0" y1="0" x2="1600" y2="1200" gradientUnits="userSpaceOnUse">
      <stop stop-color="#F8FAFF"/>
      <stop offset="1" stop-color="#EEF2FF"/>
    </linearGradient>
    <linearGradient id="accent" x1="0" y1="0" x2="1" y2="1">
      <stop stop-color="#7C3AED"/>
      <stop offset="1" stop-color="#22D3EE"/>
    </linearGradient>
  </defs>
  <rect width="1600" height="1200" rx="48" fill="url(#bg)"/>

  <rect x="250" y="220" width="1100" height="760" rx="40" fill="white" stroke="#E5E7EB"/>
  <rect x="340" y="320" width="920" height="430" rx="24" fill="#F9FAFB" stroke="#E5E7EB"/>

  <g fill="#1F2937">
    <text x="360" y="280" font-family="Arial, Helvetica, sans-serif" font-size="42" font-weight="700">Digital Team Collaboration</text>
    <text x="360" y="815" font-family="Arial, Helvetica, sans-serif" font-size="26" fill="#4B5563">Strategy, analytics, and campaign planning in one room.</text>
  </g>

  <g>
    <circle cx="520" cy="560" r="74" fill="url(#accent)"/>
    <rect x="468" y="630" width="104" height="140" rx="30" fill="#C4B5FD"/>

    <circle cx="760" cy="560" r="74" fill="url(#accent)"/>
    <rect x="708" y="630" width="104" height="140" rx="30" fill="#BFDBFE"/>

    <circle cx="1000" cy="560" r="74" fill="url(#accent)"/>
    <rect x="948" y="630" width="104" height="140" rx="30" fill="#DDD6FE"/>
  </g>

  <g stroke="#818CF8" stroke-width="6" stroke-linecap="round">
    <path d="M450 410H1150"/>
    <path d="M450 460H1020"/>
    <path d="M450 510H940"/>
  </g>

  <g fill="#4F46E5">
    <rect x="1140" y="365" width="70" height="130" rx="12"/>
    <rect x="1225" y="330" width="70" height="165" rx="12" fill="#22D3EE"/>
    <rect x="1310" y="390" width="70" height="105" rx="12" fill="#A78BFA"/>
  </g>

  <g fill="#7C3AED">
    <circle cx="520" cy="470" r="12"/>
    <circle cx="760" cy="470" r="12"/>
    <circle cx="1000" cy="470" r="12"/>
  </g>
</svg>
